<svg id="Ebene_1" data-name="Ebene 1" xmlns="http://www.w3.org/2000/svg" viewBox="0 0 484 485"><defs><style>.cls-1,.cls-2{fill:none;}.cls-1{stroke:#000;stroke-linecap:round;stroke-miterlimit:10;stroke-width:18px;}</style></defs><path class="cls-1" d="M409,474H387a70,70,0,0,1-70-70V266a70,70,0,0,1,70-70H540a70,70,0,0,1,70,70V397.09C607,457,576.86,472.7,535.49,474a5,5,0,0,0-3.86,2.11l-59.45,84a5,5,0,0,1-9.08-2.92L464,420" transform="translate(-224 -117)"/><path class="cls-1" d="M512,328l4.48-5.36a7.58,7.58,0,0,1,7.75-2.48,20,20,0,0,1,14.52,23.15C530.48,386.21,500.37,418,464.5,418s-66-31.79-74.25-74.69a20,20,0,0,1,15.47-23.38,7.54,7.54,0,0,1,6.66,1.89L419,328" transform="translate(-224 -117)"/><rect class="cls-2" width="484" height="485" rx="95.34"/></svg>